<svg width="1500" height="192" viewBox="0 0 1500 192" fill="none" xmlns="http://www.w3.org/2000/svg">
<path d="M0 0H120.583V33.7977H35.529V76.7153H118.968V110.513H35.529V187.765H0V0Z" fill="#7556B5"/>
<path d="M191.992 132.24C192.172 136.174 193.069 139.84 194.684 143.238C196.478 146.456 198.811 149.318 201.682 151.821C204.732 154.146 208.142 156.024 211.91 157.454C215.858 158.706 219.985 159.332 224.291 159.332C232.725 159.332 239.185 157.901 243.671 155.04C248.157 152 251.387 148.424 253.361 144.311L282.43 160.405C280.815 163.802 278.572 167.379 275.701 171.134C272.83 174.711 269.061 178.019 264.396 181.059C259.91 184.099 254.347 186.602 247.708 188.569C241.248 190.536 233.622 191.52 224.83 191.52C214.781 191.52 205.63 189.911 197.375 186.692C189.121 183.473 181.944 178.824 175.843 172.744C169.921 166.664 165.256 159.242 161.846 150.48C158.617 141.718 157.002 131.793 157.002 120.706V119.096C157.002 108.904 158.706 99.6047 162.116 91.2C165.704 82.7953 170.549 75.6424 176.65 69.7412C182.751 63.84 189.839 59.28 197.914 56.0612C206.168 52.6635 214.961 50.9647 224.291 50.9647C235.775 50.9647 245.645 53.0212 253.899 57.1341C262.153 61.0682 268.972 66.1647 274.355 72.4235C279.738 78.5035 283.686 85.2988 286.198 92.8094C288.71 100.141 289.966 107.294 289.966 114.268V132.24H191.992ZM224.022 81.5435C215.409 81.5435 208.411 83.7788 203.028 88.2494C197.645 92.5412 194.146 97.5482 192.531 103.271H255.514C254.437 97.0118 251.028 91.8259 245.286 87.713C239.723 83.6 232.635 81.5435 224.022 81.5435Z" fill="#7556B5"/>
<path d="M413.323 168.452C409.734 176.856 404.71 182.847 398.25 186.424C391.79 189.821 384.254 191.52 375.641 191.52C367.566 191.52 359.94 190 352.762 186.96C345.764 183.92 339.573 179.449 334.19 173.548C328.807 167.647 324.5 160.494 321.271 152.089C318.22 143.685 316.695 134.118 316.695 123.388V119.096C316.695 108.546 318.22 99.0683 321.271 90.6635C324.321 82.2588 328.448 75.1059 333.652 69.2047C338.856 63.3035 344.867 58.8329 351.686 55.7929C358.684 52.5741 366.13 50.9647 374.026 50.9647C383.536 50.9647 391.162 52.5741 396.904 55.7929C402.826 59.0118 407.491 64.0188 410.9 70.8141H415.745V54.72H449.659V147.529C449.659 152.894 452.082 155.576 456.927 155.576H462.041V187.765H438.893C432.792 187.765 427.768 185.976 423.82 182.4C420.052 178.824 418.168 174.174 418.168 168.452H413.323ZM383.177 159.332C393.046 159.332 400.942 156.113 406.863 149.675C412.785 143.059 415.745 134.118 415.745 122.852V119.633C415.745 108.367 412.785 99.5153 406.863 93.0777C400.942 86.4612 393.046 83.1529 383.177 83.1529C373.308 83.1529 365.413 86.4612 359.491 93.0777C353.57 99.5153 350.609 108.367 350.609 119.633V122.852C350.609 134.118 353.57 143.059 359.491 149.675C365.413 156.113 373.308 159.332 383.177 159.332Z" fill="#7556B5"/>
<path d="M487.962 54.72H527.528V0H561.442V54.72H609.622V86.9082H561.442V147.529C561.442 152.894 563.865 155.576 568.71 155.576H604.777V187.765H548.254C542.153 187.765 537.128 185.798 533.181 181.864C529.412 177.929 527.528 172.922 527.528 166.842V86.9082H487.962V54.72Z" fill="#7556B5"/>
<path d="M690.99 187.765H657.076V0H690.99V76.1788H695.835C699.244 68.1318 704.268 61.9624 710.908 57.6706C717.547 53.2 725.711 50.9647 735.401 50.9647C742.04 50.9647 748.141 52.0376 753.704 54.1835C759.266 56.3294 764.111 59.5482 768.238 63.84C772.365 68.1318 775.595 73.6753 777.928 80.4706C780.261 87.0871 781.427 94.9553 781.427 104.075V187.765H747.513V112.122C747.513 102.645 745.18 95.2235 740.515 89.8588C736.029 84.3153 729.479 81.5435 720.866 81.5435C710.818 81.5435 703.281 84.9412 698.257 91.7365C693.412 98.3529 690.99 107.294 690.99 118.56V187.765Z" fill="#7556B5"/>
<path d="M851.221 132.24C851.401 136.174 852.298 139.84 853.913 143.238C855.707 146.456 858.04 149.318 860.911 151.821C863.961 154.146 867.371 156.024 871.139 157.454C875.087 158.706 879.214 159.332 883.52 159.332C891.954 159.332 898.414 157.901 902.9 155.04C907.386 152 910.616 148.424 912.59 144.311L941.659 160.405C940.044 163.802 937.801 167.379 934.93 171.134C932.059 174.711 928.29 178.019 923.625 181.059C919.139 184.099 913.576 186.602 906.937 188.569C900.477 190.536 892.851 191.52 884.059 191.52C874.01 191.52 864.859 189.911 856.604 186.692C848.35 183.473 841.173 178.824 835.072 172.744C829.15 166.664 824.485 159.242 821.075 150.48C817.846 141.718 816.231 131.793 816.231 120.706V119.096C816.231 108.904 817.935 99.6047 821.345 91.2C824.933 82.7953 829.778 75.6424 835.879 69.7412C841.98 63.84 849.068 59.28 857.143 56.0612C865.397 52.6635 874.19 50.9647 883.52 50.9647C895.004 50.9647 904.874 53.0212 913.128 57.1341C921.382 61.0682 928.201 66.1647 933.584 72.4235C938.967 78.5035 942.915 85.2988 945.427 92.8094C947.939 100.141 949.195 107.294 949.195 114.268V132.24H851.221ZM883.251 81.5435C874.638 81.5435 867.64 83.7788 862.257 88.2494C856.874 92.5412 853.375 97.5482 851.76 103.271H914.743C913.666 97.0118 910.257 91.8259 904.515 87.713C898.952 83.6 891.864 81.5435 883.251 81.5435Z" fill="#7556B5"/>
<path d="M979.692 54.72H1036.22V74.0329H1041.06C1043.57 66.7012 1047.79 61.0682 1053.71 57.1341C1059.81 53.0212 1067.08 50.9647 1075.51 50.9647C1088.79 50.9647 1099.47 55.1671 1107.54 63.5718C1115.62 71.7977 1119.65 84.4047 1119.65 101.393V107.294L1084.66 110.513V106.758C1084.66 99.4259 1082.78 93.6141 1079.01 89.3224C1075.24 84.8518 1069.59 82.6165 1062.05 82.6165C1054.52 82.6165 1048.6 85.2094 1044.29 90.3953C1039.98 95.5812 1037.83 103.002 1037.83 112.659V155.576H1068.51V187.765H976.462V155.576H1003.92V86.9082H979.692V54.72Z" fill="#7556B5"/>
<path d="M1193.49 92.2729C1193.49 96.5647 1195.73 99.6941 1200.22 101.661C1204.7 103.449 1212.87 104.969 1224.71 106.221C1238.35 107.652 1249.47 111.765 1258.08 118.56C1266.7 125.176 1271 134.475 1271 146.456V148.066C1271 161.299 1266.16 171.849 1256.47 179.718C1246.78 187.586 1233.14 191.52 1215.56 191.52C1205.15 191.52 1196.27 190.179 1188.91 187.496C1181.55 184.814 1175.45 181.506 1170.61 177.572C1165.76 173.459 1161.99 168.988 1159.3 164.16C1156.79 159.153 1155.09 154.325 1154.19 149.675L1185.41 139.482C1186.85 145.205 1189.81 150.212 1194.29 154.504C1198.96 158.795 1206.05 160.941 1215.56 160.941C1223.99 160.941 1229.73 159.689 1232.78 157.186C1236.01 154.504 1237.63 151.642 1237.63 148.602C1237.63 146.814 1237.18 145.205 1236.28 143.774C1235.56 142.165 1234.13 140.734 1231.98 139.482C1229.82 138.052 1226.86 136.889 1223.09 135.995C1219.5 135.101 1214.93 134.386 1209.37 133.849C1194.29 132.598 1182.27 128.753 1173.3 122.315C1164.51 115.699 1160.11 106.042 1160.11 93.3459V91.7365C1160.11 85.12 1161.55 79.3082 1164.42 74.3012C1167.29 69.2941 1171.06 65.0918 1175.72 61.6941C1180.39 58.1177 1185.77 55.4353 1191.87 53.6471C1197.97 51.8588 1204.25 50.9647 1210.71 50.9647C1219.15 50.9647 1226.41 52.0376 1232.51 54.1835C1238.79 56.1506 1244.09 58.833 1248.39 62.2306C1252.7 65.4494 1256.2 69.1153 1258.89 73.2282C1261.58 77.1624 1263.65 81.0071 1265.08 84.7624L1234.4 97.1012C1232.78 92.2729 1230 88.5177 1226.05 85.8353C1222.11 82.9741 1216.99 81.5435 1210.71 81.5435C1204.97 81.5435 1200.66 82.6165 1197.79 84.7624C1194.92 86.7294 1193.49 89.2329 1193.49 92.2729Z" fill="#7556B5"/>
<path d="M1402.7 166.038C1402.7 169.614 1401.99 173.012 1400.55 176.231C1399.3 179.271 1397.5 181.953 1395.17 184.278C1392.84 186.424 1390.05 188.122 1386.82 189.374C1383.77 190.805 1380.54 191.52 1377.13 191.52C1373.55 191.52 1370.23 190.805 1367.18 189.374C1364.13 188.122 1361.43 186.424 1359.1 184.278C1356.77 181.953 1354.88 179.271 1353.45 176.231C1352.19 173.012 1351.56 169.614 1351.56 166.038C1351.56 162.461 1352.19 159.153 1353.45 156.113C1354.88 152.894 1356.77 150.212 1359.1 148.066C1361.43 145.741 1364.13 143.953 1367.18 142.701C1370.23 141.271 1373.55 140.555 1377.13 140.555C1380.54 140.555 1383.77 141.271 1386.82 142.701C1390.05 143.953 1392.84 145.741 1395.17 148.066C1397.5 150.212 1399.3 152.894 1400.55 156.113C1401.99 159.153 1402.7 162.461 1402.7 166.038Z" fill="#7556B5"/>
</svg>
