<svg width="501" height="70" viewBox="0 0 501 70" fill="none" xmlns="http://www.w3.org/2000/svg">
<path d="M0.447998 0.800049H43.456V12.8961H13.12V28.2561H42.88V40.3521H13.12V68.0001H0.447998V0.800049Z" fill="white"/>
<path d="M68.9252 48.1281C68.9892 49.5361 69.3093 50.848 69.8853 52.064C70.5253 53.216 71.3572 54.2401 72.3812 55.1361C73.4692 55.9681 74.6853 56.6401 76.0293 57.1521C77.4373 57.6001 78.9093 57.8241 80.4453 57.8241C83.4533 57.8241 85.7573 57.3121 87.3573 56.2881C88.9573 55.2001 90.1093 53.9201 90.8133 52.4481L101.181 58.2081C100.605 59.4241 99.8053 60.704 98.7812 62.048C97.7573 63.328 96.4133 64.5121 94.7493 65.6001C93.1493 66.6881 91.1653 67.5841 88.7973 68.2881C86.4933 68.9921 83.7733 69.3441 80.6373 69.3441C77.0533 69.3441 73.7893 68.7681 70.8453 67.6161C67.9013 66.4641 65.3412 64.8001 63.1652 62.6241C61.0532 60.4481 59.3892 57.7921 58.1732 54.6561C57.0212 51.5201 56.4452 47.9681 56.4452 44.0001V43.424C56.4452 39.776 57.0532 36.4481 58.2692 33.4401C59.5492 30.4321 61.2772 27.872 63.4532 25.76C65.6292 23.648 68.1573 22.0161 71.0373 20.8641C73.9813 19.6481 77.1173 19.04 80.4453 19.04C84.5413 19.04 88.0612 19.776 91.0052 21.2481C93.9492 22.656 96.3813 24.4801 98.3013 26.7201C100.221 28.8961 101.629 31.3281 102.525 34.0161C103.421 36.6401 103.869 39.2001 103.869 41.6961V48.1281H68.9252ZM80.3493 29.984C77.2773 29.984 74.7813 30.784 72.8613 32.384C70.9413 33.92 69.6932 35.712 69.1172 37.76H91.5813C91.1973 35.52 89.9813 33.6641 87.9333 32.1921C85.9492 30.7201 83.4212 29.984 80.3493 29.984Z" fill="white"/>
<path d="M147.867 61.0881C146.587 64.0961 144.795 66.2401 142.491 67.5201C140.187 68.7361 137.498 69.3441 134.426 69.3441C131.546 69.3441 128.826 68.8001 126.266 67.7121C123.77 66.6241 121.563 65.0241 119.643 62.9121C117.723 60.8001 116.187 58.2401 115.035 55.2321C113.947 52.2241 113.403 48.8001 113.403 44.9601V43.424C113.403 39.648 113.947 36.2561 115.035 33.2481C116.122 30.2401 117.595 27.68 119.451 25.568C121.306 23.456 123.451 21.8561 125.883 20.7681C128.379 19.616 131.034 19.04 133.85 19.04C137.242 19.04 139.962 19.616 142.01 20.7681C144.122 21.92 145.787 23.712 147.003 26.1441H148.73V20.3841H160.827V53.6001C160.827 55.5201 161.691 56.48 163.419 56.48H165.243V68.0001H156.986C154.81 68.0001 153.019 67.3601 151.611 66.0801C150.267 64.8001 149.594 63.1361 149.594 61.0881H147.867ZM137.115 57.8241C140.635 57.8241 143.45 56.672 145.562 54.368C147.674 52 148.73 48.8001 148.73 44.7681V43.6161C148.73 39.5841 147.674 36.4161 145.562 34.1121C143.45 31.7441 140.635 30.5601 137.115 30.5601C133.595 30.5601 130.779 31.7441 128.667 34.1121C126.555 36.4161 125.499 39.5841 125.499 43.6161V44.7681C125.499 48.8001 126.555 52 128.667 54.368C130.779 56.672 133.595 57.8241 137.115 57.8241Z" fill="white"/>
<path d="M174.488 20.3841H188.6V0.800049H200.696V20.3841H217.88V31.9041H200.696V53.6001C200.696 55.5201 201.56 56.48 203.288 56.48H216.152V68.0001H195.992C193.816 68.0001 192.024 67.2961 190.616 65.8881C189.272 64.4801 188.6 62.6881 188.6 60.5121V31.9041H174.488V20.3841Z" fill="white"/>
<path d="M246.901 68.0001H234.805V0.800049H246.901V28.064H248.629C249.845 25.184 251.637 22.9761 254.005 21.4401C256.373 19.84 259.285 19.04 262.741 19.04C265.109 19.04 267.285 19.424 269.269 20.1921C271.253 20.9601 272.981 22.1121 274.453 23.6481C275.925 25.1841 277.077 27.1681 277.909 29.6001C278.741 31.9681 279.157 34.784 279.157 38.048V68.0001H267.061V40.9281C267.061 37.5361 266.229 34.8801 264.565 32.9601C262.965 30.9761 260.629 29.984 257.557 29.984C253.973 29.984 251.285 31.2 249.493 33.632C247.765 36 246.901 39.2 246.901 43.232V68.0001Z" fill="white"/>
<path d="M304.05 48.1281C304.114 49.5361 304.434 50.848 305.01 52.064C305.65 53.216 306.482 54.2401 307.506 55.1361C308.594 55.9681 309.81 56.6401 311.154 57.1521C312.562 57.6001 314.034 57.8241 315.57 57.8241C318.578 57.8241 320.882 57.3121 322.482 56.2881C324.082 55.2001 325.234 53.9201 325.938 52.4481L336.306 58.2081C335.73 59.4241 334.93 60.704 333.906 62.048C332.882 63.328 331.538 64.5121 329.874 65.6001C328.274 66.6881 326.29 67.5841 323.922 68.2881C321.618 68.9921 318.898 69.3441 315.762 69.3441C312.178 69.3441 308.914 68.7681 305.97 67.6161C303.026 66.4641 300.466 64.8001 298.29 62.6241C296.178 60.4481 294.514 57.7921 293.298 54.6561C292.146 51.5201 291.57 47.9681 291.57 44.0001V43.424C291.57 39.776 292.178 36.4481 293.394 33.4401C294.674 30.4321 296.402 27.872 298.578 25.76C300.754 23.648 303.282 22.0161 306.162 20.8641C309.106 19.6481 312.242 19.04 315.57 19.04C319.666 19.04 323.186 19.776 326.13 21.2481C329.074 22.656 331.506 24.4801 333.426 26.7201C335.346 28.8961 336.754 31.3281 337.65 34.0161C338.546 36.6401 338.994 39.2001 338.994 41.6961V48.1281H304.05ZM315.474 29.984C312.402 29.984 309.906 30.784 307.986 32.384C306.066 33.92 304.818 35.712 304.242 37.76H326.706C326.322 35.52 325.106 33.6641 323.058 32.1921C321.074 30.7201 318.546 29.984 315.474 29.984Z" fill="white"/>
<path d="M349.871 20.3841H370.031V27.2961H371.759C372.655 24.6721 374.16 22.656 376.272 21.2481C378.448 19.776 381.04 19.04 384.048 19.04C388.784 19.04 392.591 20.5441 395.471 23.5521C398.351 26.4961 399.792 31.0081 399.792 37.0881V39.2001L387.311 40.3521V39.008C387.311 36.384 386.64 34.3041 385.296 32.7681C383.952 31.1681 381.935 30.368 379.247 30.368C376.559 30.368 374.448 31.2961 372.911 33.1521C371.375 35.0081 370.608 37.6641 370.608 41.1201V56.48H381.552V68.0001H348.72V56.48H358.512V31.9041H349.871V20.3841Z" fill="white"/>
<path d="M426.125 33.8241C426.125 35.3601 426.925 36.4801 428.525 37.1841C430.125 37.8241 433.037 38.368 437.261 38.816C442.125 39.328 446.093 40.8 449.165 43.232C452.237 45.6 453.773 48.928 453.773 53.216V53.7921C453.773 58.5281 452.045 62.3041 448.589 65.1201C445.133 67.9361 440.269 69.3441 433.997 69.3441C430.285 69.3441 427.117 68.8641 424.493 67.9041C421.869 66.9441 419.693 65.7601 417.965 64.3521C416.237 62.8801 414.893 61.2801 413.933 59.5521C413.037 57.7601 412.429 56.032 412.109 54.368L423.245 50.7201C423.757 52.7681 424.813 54.5601 426.413 56.0961C428.077 57.6321 430.605 58.4001 433.997 58.4001C437.005 58.4001 439.053 57.9521 440.141 57.0561C441.293 56.0961 441.869 55.0721 441.869 53.9841C441.869 53.3441 441.709 52.7681 441.389 52.2561C441.133 51.68 440.621 51.1681 439.853 50.7201C439.085 50.2081 438.029 49.7921 436.685 49.4721C435.405 49.1521 433.773 48.8961 431.789 48.7041C426.413 48.2561 422.125 46.8801 418.925 44.576C415.789 42.208 414.221 38.7521 414.221 34.2081V33.632C414.221 31.264 414.733 29.1841 415.757 27.3921C416.781 25.6 418.125 24.0961 419.789 22.8801C421.453 21.6001 423.373 20.6401 425.549 20.0001C427.725 19.3601 429.965 19.04 432.269 19.04C435.277 19.04 437.869 19.424 440.045 20.1921C442.285 20.8961 444.173 21.8561 445.709 23.0721C447.245 24.2241 448.493 25.536 449.453 27.008C450.413 28.416 451.149 29.7921 451.661 31.1361L440.717 35.552C440.141 33.824 439.149 32.4801 437.741 31.5201C436.333 30.496 434.509 29.984 432.269 29.984C430.221 29.984 428.685 30.3681 427.661 31.1361C426.637 31.8401 426.125 32.736 426.125 33.8241Z" fill="white"/>
<path d="M500.746 60.2241C500.746 61.5041 500.49 62.7201 499.978 63.8721C499.53 64.9601 498.89 65.9201 498.058 66.7521C497.226 67.5201 496.234 68.128 495.082 68.576C493.994 69.088 492.842 69.3441 491.626 69.3441C490.346 69.3441 489.162 69.088 488.074 68.576C486.986 68.128 486.026 67.5201 485.194 66.7521C484.362 65.9201 483.69 64.9601 483.178 63.8721C482.73 62.7201 482.506 61.5041 482.506 60.2241C482.506 58.9441 482.73 57.7601 483.178 56.6721C483.69 55.5201 484.362 54.5601 485.194 53.7921C486.026 52.9601 486.986 52.3201 488.074 51.8721C489.162 51.3601 490.346 51.104 491.626 51.104C492.842 51.104 493.994 51.3601 495.082 51.8721C496.234 52.3201 497.226 52.9601 498.058 53.7921C498.89 54.5601 499.53 55.5201 499.978 56.6721C500.49 57.7601 500.746 58.9441 500.746 60.2241Z" fill="white"/>
</svg>
