<svg width="169" height="24" viewBox="0 0 169 24" fill="none" xmlns="http://www.w3.org/2000/svg">
<path d="M0.447998 0.800049H14.8794V4.85887H4.7001V10.0129H14.6861V14.0718H4.7001V23.3491H0.447998V0.800049Z" fill="white"/>
<path d="M23.4256 16.681C23.4471 17.1535 23.5545 17.5937 23.7477 18.0017C23.9625 18.3883 24.2417 18.7319 24.5853 19.0325C24.9503 19.3117 25.3584 19.5372 25.8094 19.709C26.2818 19.8593 26.7757 19.9345 27.2911 19.9345C28.3005 19.9345 29.0736 19.7627 29.6105 19.4191C30.1474 19.054 30.5339 18.6245 30.7701 18.1306L34.2491 20.0634C34.0559 20.4714 33.7874 20.9009 33.4438 21.3519C33.1002 21.7814 32.6492 22.1787 32.0909 22.5437C31.554 22.9088 30.8883 23.2095 30.0937 23.4457C29.3206 23.6819 28.4079 23.8 27.3556 23.8C26.153 23.8 25.0577 23.6068 24.0699 23.2202C23.082 22.8337 22.223 22.2753 21.4928 21.5451C20.7841 20.815 20.2258 19.9238 19.8178 18.8715C19.4312 17.8192 19.2379 16.6273 19.2379 15.2958V15.1026C19.2379 13.8785 19.4419 12.7618 19.85 11.7524C20.2795 10.7431 20.8593 9.88408 21.5895 9.1754C22.3196 8.46671 23.1679 7.9191 24.1343 7.53254C25.1221 7.12451 26.1744 6.9205 27.2911 6.9205C28.6656 6.9205 29.8467 7.16746 30.8346 7.66139C31.8224 8.13385 32.6385 8.74589 33.2827 9.49753C33.927 10.2277 34.3995 11.0437 34.7001 11.9457C35.0008 12.8262 35.1511 13.6852 35.1511 14.5227V16.681H23.4256ZM27.2589 10.5928C26.2281 10.5928 25.3906 10.8612 24.7463 11.3981C24.1021 11.9135 23.6833 12.5148 23.49 13.202H31.0278C30.899 12.4504 30.491 11.8276 29.8038 11.3337C29.138 10.8397 28.2897 10.5928 27.2589 10.5928Z" fill="white"/>
<path d="M49.9144 21.0297C49.4849 22.0391 48.8836 22.7585 48.1105 23.188C47.3374 23.596 46.4354 23.8 45.4046 23.8C44.4382 23.8 43.5255 23.6175 42.6665 23.2524C41.829 22.8873 41.0881 22.3505 40.4438 21.6418C39.7996 20.9331 39.2842 20.0741 38.8976 19.0648C38.5325 18.0554 38.35 16.9065 38.35 15.618V15.1026C38.35 13.8355 38.5325 12.6973 38.8976 11.688C39.2627 10.6787 39.7566 9.81966 40.3794 9.11097C41.0022 8.40229 41.7216 7.86541 42.5377 7.50033C43.3752 7.11377 44.2664 6.9205 45.2113 6.9205C46.3495 6.9205 47.2622 7.11377 47.9494 7.50033C48.6581 7.88688 49.2165 8.48819 49.6245 9.30425H50.2043V7.37148H54.2631V18.5171C54.2631 19.1614 54.5531 19.4835 55.1329 19.4835H55.7449V23.3491H52.9746C52.2445 23.3491 51.6432 23.1343 51.1707 22.7048C50.7197 22.2753 50.4942 21.7169 50.4942 21.0297H49.9144ZM46.3066 19.9345C47.4877 19.9345 48.4326 19.5479 49.1413 18.7748C49.85 17.9803 50.2043 16.9065 50.2043 15.5535V15.167C50.2043 13.8141 49.85 12.751 49.1413 11.9779C48.4326 11.1833 47.4877 10.786 46.3066 10.786C45.1254 10.786 44.1805 11.1833 43.4718 11.9779C42.7631 12.751 42.4088 13.8141 42.4088 15.167V15.5535C42.4088 16.9065 42.7631 17.9803 43.4718 18.7748C44.1805 19.5479 45.1254 19.9345 46.3066 19.9345Z" fill="white"/>
<path d="M58.8472 7.37148H63.5825V0.800049H67.6413V7.37148H73.4074V11.237H67.6413V18.5171C67.6413 19.1614 67.9312 19.4835 68.5111 19.4835H72.8276V23.3491H66.0629C65.3327 23.3491 64.7314 23.1128 64.259 22.6404C63.808 22.1679 63.5825 21.5666 63.5825 20.8365V11.237H58.8472V7.37148Z" fill="white"/>
<path d="M83.1455 23.3491H79.0867V0.800049H83.1455V9.94851H83.7253C84.1334 8.98212 84.7347 8.24123 85.5293 7.72582C86.3239 7.18894 87.301 6.9205 88.4606 6.9205C89.2552 6.9205 89.9854 7.04935 90.6511 7.30705C91.3169 7.56475 91.8967 7.95131 92.3906 8.46672C92.8845 8.98212 93.2711 9.64785 93.5503 10.4639C93.8295 11.2585 93.9691 12.2034 93.9691 13.2986V23.3491H89.9102V14.265C89.9102 13.1268 89.631 12.2356 89.0727 11.5914C88.5358 10.9256 87.752 10.5928 86.7212 10.5928C85.5185 10.5928 84.6166 11.0008 84.0153 11.8169C83.4354 12.6114 83.1455 13.6852 83.1455 15.0381V23.3491Z" fill="white"/>
<path d="M102.322 16.681C102.343 17.1535 102.451 17.5937 102.644 18.0017C102.859 18.3883 103.138 18.7319 103.482 19.0325C103.847 19.3117 104.255 19.5372 104.706 19.709C105.178 19.8593 105.672 19.9345 106.188 19.9345C107.197 19.9345 107.97 19.7627 108.507 19.4191C109.044 19.054 109.43 18.6245 109.667 18.1306L113.146 20.0634C112.952 20.4714 112.684 20.9009 112.34 21.3519C111.997 21.7814 111.546 22.1787 110.987 22.5437C110.45 22.9088 109.785 23.2095 108.99 23.4457C108.217 23.6819 107.304 23.8 106.252 23.8C105.049 23.8 103.954 23.6068 102.966 23.2202C101.978 22.8337 101.119 22.2753 100.389 21.5451C99.6805 20.815 99.1222 19.9238 98.7142 18.8715C98.3276 17.8192 98.1343 16.6273 98.1343 15.2958V15.1026C98.1343 13.8785 98.3383 12.7618 98.7464 11.7524C99.1759 10.7431 99.7557 9.88408 100.486 9.1754C101.216 8.46671 102.064 7.9191 103.031 7.53254C104.019 7.12451 105.071 6.9205 106.188 6.9205C107.562 6.9205 108.743 7.16746 109.731 7.66139C110.719 8.13385 111.535 8.74589 112.179 9.49753C112.823 10.2277 113.296 11.0437 113.597 11.9457C113.897 12.8262 114.047 13.6852 114.047 14.5227V16.681H102.322ZM106.155 10.5928C105.125 10.5928 104.287 10.8612 103.643 11.3981C102.998 11.9135 102.58 12.5148 102.386 13.202H109.924C109.795 12.4504 109.387 11.8276 108.7 11.3337C108.034 10.8397 107.186 10.5928 106.155 10.5928Z" fill="white"/>
<path d="M117.697 7.37148H124.462V9.6908H125.042C125.343 8.81032 125.847 8.13385 126.556 7.66139C127.286 7.16746 128.156 6.9205 129.165 6.9205C130.754 6.9205 132.032 7.42517 132.998 8.4345C133.965 9.42236 134.448 10.9364 134.448 12.9765V13.6852L130.26 14.0718V13.6208C130.26 12.7403 130.035 12.0423 129.584 11.5269C129.133 10.9901 128.456 10.7216 127.555 10.7216C126.653 10.7216 125.944 11.033 125.428 11.6558C124.913 12.2786 124.655 13.1698 124.655 14.3295V19.4835H128.328V23.3491H117.311V19.4835H120.597V11.237H117.697V7.37148Z" fill="white"/>
<path d="M143.284 11.8813C143.284 12.3967 143.553 12.7725 144.09 13.0087C144.626 13.2235 145.604 13.406 147.021 13.5563C148.653 13.7282 149.984 14.2221 151.015 15.0381C152.046 15.8327 152.562 16.9494 152.562 18.3883V18.5816C152.562 20.1707 151.982 21.4378 150.822 22.3827C149.662 23.3276 148.03 23.8 145.926 23.8C144.68 23.8 143.617 23.639 142.737 23.3169C141.856 22.9947 141.126 22.5974 140.546 22.125C139.966 21.631 139.515 21.0942 139.193 20.5143C138.893 19.913 138.689 19.3332 138.581 18.7748L142.318 17.5507C142.49 18.238 142.844 18.8393 143.381 19.3547C143.939 19.8701 144.787 20.1278 145.926 20.1278C146.935 20.1278 147.622 19.9775 147.987 19.6768C148.374 19.3547 148.567 19.0111 148.567 18.646C148.567 18.4312 148.513 18.238 148.406 18.0662C148.32 17.8729 148.148 17.7011 147.891 17.5507C147.633 17.3789 147.279 17.2394 146.828 17.132C146.398 17.0246 145.85 16.9387 145.185 16.8743C143.381 16.724 141.942 16.2622 140.868 15.4891C139.816 14.6945 139.29 13.5349 139.29 12.0101V11.8169C139.29 11.0223 139.462 10.3243 139.805 9.72302C140.149 9.12171 140.6 8.61704 141.158 8.20901C141.717 7.77951 142.361 7.45738 143.091 7.24263C143.821 7.02787 144.573 6.9205 145.346 6.9205C146.355 6.9205 147.225 7.04935 147.955 7.30705C148.707 7.54328 149.34 7.86541 149.856 8.27344C150.371 8.65999 150.79 9.10023 151.112 9.59417C151.434 10.0666 151.681 10.5283 151.853 10.9793L148.181 12.4611C147.987 11.8813 147.654 11.4303 147.182 11.1082C146.71 10.7646 146.097 10.5928 145.346 10.5928C144.659 10.5928 144.143 10.7216 143.8 10.9793C143.456 11.2155 143.284 11.5162 143.284 11.8813Z" fill="white"/>
<path d="M168.323 20.7398C168.323 21.1693 168.238 21.5774 168.066 21.9639C167.915 22.329 167.701 22.6511 167.421 22.9303C167.142 23.188 166.809 23.392 166.423 23.5423C166.058 23.7141 165.671 23.8 165.263 23.8C164.834 23.8 164.436 23.7141 164.071 23.5423C163.706 23.392 163.384 23.188 163.105 22.9303C162.826 22.6511 162.6 22.329 162.428 21.9639C162.278 21.5774 162.203 21.1693 162.203 20.7398C162.203 20.3103 162.278 19.913 162.428 19.5479C162.6 19.1614 162.826 18.8393 163.105 18.5816C163.384 18.3024 163.706 18.0876 164.071 17.9373C164.436 17.7655 164.834 17.6796 165.263 17.6796C165.671 17.6796 166.058 17.7655 166.423 17.9373C166.809 18.0876 167.142 18.3024 167.421 18.5816C167.701 18.8393 167.915 19.1614 168.066 19.5479C168.238 19.913 168.323 20.3103 168.323 20.7398Z" fill="white"/>
</svg>
